<?xml version="1.0" encoding="UTF-8" standalone="no"?><!DOCTYPE svg PUBLIC "-//W3C//DTD SVG 1.1//EN" "http://www.w3.org/Graphics/SVG/1.1/DTD/svg11.dtd">
<svg
  width="100%"
  height="100%"
  viewBox="0 0 492 492"
  version="1.1"
  xmlns="http://www.w3.org/2000/svg"
  xmlns:xlink="http://www.w3.org/1999/xlink"
  xml:space="preserve"
  xmlns:serif="http://www.serif.com/"
  style="
    fill-rule: evenodd;
    clip-rule: evenodd;
    stroke-linejoin: round;
    stroke-miterlimit: 2;
  "
>
  <style>
    .inner > *,
    .outer > * {
      opacity: 0;
    }
  </style>
  <g class="outer">
    <path
      class="top-left"
      d="M245.76,105.585l-0,-65.619l-178.223,102.884l57.652,33.145l120.571,-70.41Z"
      style="fill: #a4a4a4; fill-opacity: 0.62"
    />
    <path
      class="left"
      d="M124.365,175.673l-56.828,-32.81l-0.011,205.788l57.53,-33.356l-0.691,-139.622Z"
      style="fill: #a4a4a4; fill-opacity: 0.62"
    />
    <path
      class="bottom-left"
      d="M124.365,315.847l-56.828,32.81l178.212,102.904l-0.122,-66.501l-121.262,-69.213Z"
      style="fill: #a4a4a4; fill-opacity: 0.62"
    />
    <path
      class="bottom-right"
      d="M245.76,385.935l0,65.619l178.223,-102.884l-57.652,-33.145l-120.571,70.41Z"
      style="fill: #a4a4a4; fill-opacity: 0.62"
    />
    <path
      class="right"
      d="M367.155,315.847l56.828,32.81l0.011,-205.788l-57.53,33.356l0.691,139.622Z"
      style="fill: #a4a4a4; fill-opacity: 0.62"
    />
    <path
      class="top-right"
      d="M367.155,175.673l56.828,-32.81l-178.212,-102.904l0.122,66.501l121.262,69.213Z"
      style="fill: #a4a4a4; fill-opacity: 0.62"
    />
  </g>
  <g class="inner">
    <path
      class="top-left"
      d="M245.76,118.56l-110.158,63.592l65.363,37.689l44.795,-26.159c-0,0 -0,-75.122 -0,-75.122Z"
      style="fill: #a4a4a4; fill-opacity: 0.62"
    />
    <path
      class="left"
      d="M135.602,182.16l-0.007,127.196l65.321,-37.762l-0.257,-51.873c0,0 -65.057,-37.561 -65.057,-37.561Z"
      style="fill: #a4a4a4; fill-opacity: 0.62"
    />
    <path
      class="bottom-left"
      d="M135.602,309.36l110.151,63.604l-0.042,-75.451l-45.052,-25.714c0,-0 -65.057,37.561 -65.057,37.561Z"
      style="fill: #a4a4a4; fill-opacity: 0.62"
    />
    <path
      class="bottom-right"
      d="M245.76,372.96l110.158,-63.592l-65.363,-37.689l-44.795,26.159c0,-0 -0,75.122 0,75.122Z"
      style="fill: #a4a4a4; fill-opacity: 0.62"
    />
    <path
      class="right"
      d="M355.918,309.36l0.007,-127.196l-65.321,37.762l0.257,51.873c-0,-0 65.057,37.561 65.057,37.561Z"
      style="fill: #a4a4a4; fill-opacity: 0.62"
    />
    <path
      class="top-right"
      d="M355.918,182.16l-110.151,-63.604l0.042,75.451l45.052,25.714c-0,0 65.057,-37.561 65.057,-37.561Z"
      style="fill: #a4a4a4; fill-opacity: 0.62"
    />
  </g>
</svg>
